<mxfile host="app.diagrams.net" modified="2024-01-29T23:20:05.595Z" agent="Mozilla/5.0 (Windows NT 10.0; Win64; x64) AppleWebKit/537.36 (KHTML, like Gecko) Chrome/120.0.0.0 Safari/537.36" etag="JX1uj8M-eOrMfl5kGhxW" version="23.0.2" type="device">
  <diagram name="Page-1" id="W4du1e_4UNkRuF1JHR08">
    <mxGraphModel dx="1588" dy="1000" grid="1" gridSize="10" guides="1" tooltips="1" connect="1" arrows="1" fold="1" page="1" pageScale="1" pageWidth="850" pageHeight="1100" math="0" shadow="0">
      <root>
        <mxCell id="0" />
        <mxCell id="1" parent="0" />
        <mxCell id="v4gILYptXq12Ke3yifsR-143" value="" style="group" vertex="1" connectable="0" parent="1">
          <mxGeometry x="51.59923006416134" y="300.0011111111111" width="704.349546797026" height="330.74074074074065" as="geometry" />
        </mxCell>
        <mxCell id="v4gILYptXq12Ke3yifsR-101" value="" style="endArrow=classic;html=1;rounded=0;" edge="1" parent="v4gILYptXq12Ke3yifsR-143">
          <mxGeometry width="50" height="50" relative="1" as="geometry">
            <mxPoint x="0.7607699358386739" y="162.55555555555566" as="sourcePoint" />
            <mxPoint x="114.87626031164069" y="162.55555555555566" as="targetPoint" />
          </mxGeometry>
        </mxCell>
        <mxCell id="v4gILYptXq12Ke3yifsR-102" value="&lt;b&gt;ServiceName String&lt;/b&gt;" style="text;html=1;strokeColor=none;fillColor=none;align=center;verticalAlign=middle;whiteSpace=wrap;rounded=0;container=0;" vertex="1" parent="v4gILYptXq12Ke3yifsR-143">
          <mxGeometry x="7.607699358386795" y="130.8888888888889" width="91.29239230064162" height="21.11111111111111" as="geometry" />
        </mxCell>
        <mxCell id="v4gILYptXq12Ke3yifsR-77" value="" style="rounded=1;whiteSpace=wrap;html=1;align=left;container=0;" vertex="1" parent="v4gILYptXq12Ke3yifsR-143">
          <mxGeometry x="115.63703024747937" width="448.85426214482123" height="330.7407407407407" as="geometry" />
        </mxCell>
        <mxCell id="v4gILYptXq12Ke3yifsR-78" value="&lt;b&gt;result map[string]interface{}&lt;/b&gt;" style="text;html=1;strokeColor=none;fillColor=none;align=center;verticalAlign=middle;whiteSpace=wrap;rounded=0;container=0;" vertex="1" parent="v4gILYptXq12Ke3yifsR-143">
          <mxGeometry x="555.3654343619512" y="152.01723356009074" width="148.98411243507485" height="26.71201814058957" as="geometry" />
        </mxCell>
        <mxCell id="v4gILYptXq12Ke3yifsR-79" value="" style="endArrow=classic;html=1;rounded=0;" edge="1" parent="v4gILYptXq12Ke3yifsR-143">
          <mxGeometry width="50" height="50" relative="1" as="geometry">
            <mxPoint x="565.1945819329869" y="189.64585034013612" as="sourcePoint" />
            <mxPoint x="694.5220898258476" y="189.2962962962963" as="targetPoint" />
          </mxGeometry>
        </mxCell>
        <mxCell id="v4gILYptXq12Ke3yifsR-80" value="result make(map[string]interface{})" style="rounded=1;whiteSpace=wrap;html=1;fillColor=#dae8fc;strokeColor=#6c8ebf;container=0;" vertex="1" parent="v4gILYptXq12Ke3yifsR-143">
          <mxGeometry x="135.50157857215603" y="41.21693121693124" width="168.8486607597515" height="44.520030234315946" as="geometry" />
        </mxCell>
        <mxCell id="v4gILYptXq12Ke3yifsR-81" value="&lt;b&gt;ReadServiceInstances&lt;/b&gt;" style="text;html=1;strokeColor=none;fillColor=none;align=left;verticalAlign=middle;whiteSpace=wrap;rounded=0;container=0;" vertex="1" parent="v4gILYptXq12Ke3yifsR-143">
          <mxGeometry x="135.4998879722986" y="7.034164777021942" width="119.18728994805986" height="26.71201814058957" as="geometry" />
        </mxCell>
        <mxCell id="v4gILYptXq12Ke3yifsR-83" value="&lt;div style=&quot;&quot;&gt;&lt;br&gt;&lt;/div&gt;&lt;br&gt;&lt;br&gt;&lt;br&gt;" style="rounded=0;whiteSpace=wrap;html=1;container=0;" vertex="1" parent="v4gILYptXq12Ke3yifsR-143">
          <mxGeometry x="135.5007332722273" y="105.55555555555543" width="410.8157653528872" height="211.1111111111111" as="geometry" />
        </mxCell>
        <mxCell id="v4gILYptXq12Ke3yifsR-84" value="&lt;b&gt;Loop over ServiceInstances&lt;/b&gt;" style="text;html=1;strokeColor=none;fillColor=none;align=left;verticalAlign=middle;whiteSpace=wrap;rounded=0;container=0;" vertex="1" parent="v4gILYptXq12Ke3yifsR-143">
          <mxGeometry x="179.2507332722273" y="114.46555555555551" width="176.25" height="26.71" as="geometry" />
        </mxCell>
        <mxCell id="v4gILYptXq12Ke3yifsR-85" value="&lt;div style=&quot;&quot;&gt;&lt;span style=&quot;background-color: initial;&quot;&gt;InstanceName&lt;/span&gt;&lt;/div&gt;&lt;div style=&quot;&quot;&gt;&lt;span style=&quot;background-color: initial;&quot;&gt;InstancePath&lt;/span&gt;&lt;/div&gt;" style="rounded=1;whiteSpace=wrap;html=1;fillColor=#dae8fc;strokeColor=#6c8ebf;align=center;container=0;" vertex="1" parent="v4gILYptXq12Ke3yifsR-143">
          <mxGeometry x="140" y="158.98" width="110" height="35.62" as="geometry" />
        </mxCell>
        <mxCell id="v4gILYptXq12Ke3yifsR-90" value="" style="shape=image;html=1;verticalLabelPosition=bottom;verticalAlign=top;imageAspect=1;aspect=fixed;image=img/clipart/Gear_128x128.png;container=0;" vertex="1" parent="v4gILYptXq12Ke3yifsR-143">
          <mxGeometry x="146.4366106441979" y="114.46157218442931" width="22.767543461829177" height="26.71201814058957" as="geometry" />
        </mxCell>
        <mxCell id="v4gILYptXq12Ke3yifsR-106" value="return result" style="rounded=1;whiteSpace=wrap;html=1;fillColor=#ffe6cc;strokeColor=#d79b00;align=left;container=0;" vertex="1" parent="v4gILYptXq12Ke3yifsR-143">
          <mxGeometry x="144.43" y="260.37" width="83.57" height="44.52" as="geometry" />
        </mxCell>
        <mxCell id="v4gILYptXq12Ke3yifsR-87" value="readInstance(serviceName, InstanceName, InstancePath)" style="rounded=1;whiteSpace=wrap;html=1;fillColor=#f8cecc;strokeColor=#b85450;align=left;container=0;" vertex="1" parent="v4gILYptXq12Ke3yifsR-143">
          <mxGeometry x="299.577062828738" y="203.50163265306105" width="239.95346288437867" height="44.52333333333333" as="geometry" />
        </mxCell>
        <mxCell id="v4gILYptXq12Ke3yifsR-88" value="result[InstanceName]" style="rounded=1;whiteSpace=wrap;html=1;fillColor=#dae8fc;strokeColor=#6c8ebf;container=0;" vertex="1" parent="v4gILYptXq12Ke3yifsR-143">
          <mxGeometry x="140" y="203.5" width="115.82" height="46.5" as="geometry" />
        </mxCell>
        <mxCell id="v4gILYptXq12Ke3yifsR-89" value="" style="shape=partialRectangle;whiteSpace=wrap;html=1;left=0;right=0;fillColor=none;container=0;" vertex="1" parent="v4gILYptXq12Ke3yifsR-143">
          <mxGeometry x="266.76198310756735" y="221.3096447467874" width="21.877340447885356" height="8.90400604686319" as="geometry" />
        </mxCell>
        <mxCell id="v4gILYptXq12Ke3yifsR-99" value="" style="endArrow=classic;html=1;rounded=0;" edge="1" parent="v4gILYptXq12Ke3yifsR-143">
          <mxGeometry width="50" height="50" relative="1" as="geometry">
            <mxPoint y="215.33333333333326" as="sourcePoint" />
            <mxPoint x="114.11549037580201" y="215.33333333333326" as="targetPoint" />
          </mxGeometry>
        </mxCell>
        <mxCell id="v4gILYptXq12Ke3yifsR-100" value="&lt;b&gt;ServicePath String&lt;/b&gt;" style="text;html=1;strokeColor=none;fillColor=none;align=center;verticalAlign=middle;whiteSpace=wrap;rounded=0;container=0;" vertex="1" parent="v4gILYptXq12Ke3yifsR-143">
          <mxGeometry x="4" y="183.66666666666674" width="91.29239230064161" height="21.11111111111111" as="geometry" />
        </mxCell>
        <mxCell id="v4gILYptXq12Ke3yifsR-146" value="" style="group" vertex="1" connectable="0" parent="1">
          <mxGeometry x="755.95" y="35.980000000000004" width="762.9499999999998" height="360" as="geometry" />
        </mxCell>
        <mxCell id="v4gILYptXq12Ke3yifsR-46" value="" style="rounded=1;whiteSpace=wrap;html=1;align=left;container=0;" vertex="1" parent="v4gILYptXq12Ke3yifsR-146">
          <mxGeometry x="103.44" width="483.56" height="360" as="geometry" />
        </mxCell>
        <mxCell id="v4gILYptXq12Ke3yifsR-47" value="&lt;b&gt;result map[string]interface{}&lt;/b&gt;" style="text;html=1;strokeColor=none;fillColor=none;align=center;verticalAlign=middle;whiteSpace=wrap;rounded=0;container=0;" vertex="1" parent="v4gILYptXq12Ke3yifsR-146">
          <mxGeometry x="596.9970311144824" y="149.9986938775511" width="165.95296888551746" height="22.775510204081634" as="geometry" />
        </mxCell>
        <mxCell id="v4gILYptXq12Ke3yifsR-48" value="" style="endArrow=classic;html=1;rounded=0;entryX=1.085;entryY=1.304;entryDx=0;entryDy=0;entryPerimeter=0;" edge="1" parent="v4gILYptXq12Ke3yifsR-146" target="v4gILYptXq12Ke3yifsR-47">
          <mxGeometry width="50" height="50" relative="1" as="geometry">
            <mxPoint x="586.690258257366" y="179.6980408163265" as="sourcePoint" />
            <mxPoint x="730.7477925984081" y="179.39999999999998" as="targetPoint" />
          </mxGeometry>
        </mxCell>
        <mxCell id="v4gILYptXq12Ke3yifsR-49" value="result make(map[string]interface{})" style="rounded=1;whiteSpace=wrap;html=1;fillColor=#dae8fc;strokeColor=#6c8ebf;container=0;" vertex="1" parent="v4gILYptXq12Ke3yifsR-146">
          <mxGeometry x="125.56384290780235" y="53.14285714285711" width="188.08003140358645" height="37.95918367346939" as="geometry" />
        </mxCell>
        <mxCell id="v4gILYptXq12Ke3yifsR-69" value="&lt;b&gt;ReadSecrets&lt;/b&gt;" style="text;html=1;strokeColor=none;fillColor=none;align=left;verticalAlign=middle;whiteSpace=wrap;rounded=0;container=0;" vertex="1" parent="v4gILYptXq12Ke3yifsR-146">
          <mxGeometry x="125.56195975354552" y="23.997551020408196" width="132.76237510841398" height="22.775510204081634" as="geometry" />
        </mxCell>
        <mxCell id="v4gILYptXq12Ke3yifsR-20" value="" style="endArrow=classic;html=1;rounded=0;" edge="1" parent="v4gILYptXq12Ke3yifsR-146">
          <mxGeometry width="50" height="50" relative="1" as="geometry">
            <mxPoint y="190" as="sourcePoint" />
            <mxPoint x="104.74194155856213" y="189" as="targetPoint" />
          </mxGeometry>
        </mxCell>
        <mxCell id="v4gILYptXq12Ke3yifsR-21" value="&lt;b&gt;SecretsPath&lt;br&gt;String&lt;/b&gt;" style="text;html=1;strokeColor=none;fillColor=none;align=center;verticalAlign=middle;whiteSpace=wrap;rounded=0;container=0;" vertex="1" parent="v4gILYptXq12Ke3yifsR-146">
          <mxGeometry x="7" y="150" width="79.32" height="18" as="geometry" />
        </mxCell>
        <mxCell id="v4gILYptXq12Ke3yifsR-50" value="&lt;div style=&quot;&quot;&gt;&lt;br&gt;&lt;/div&gt;&lt;br&gt;&lt;br&gt;&lt;br&gt;" style="rounded=0;whiteSpace=wrap;html=1;container=0;" vertex="1" parent="v4gILYptXq12Ke3yifsR-146">
          <mxGeometry x="125.56" y="108" width="441.44" height="235.72" as="geometry" />
        </mxCell>
        <mxCell id="v4gILYptXq12Ke3yifsR-51" value="&lt;b&gt;Loop over Services&lt;/b&gt;" style="text;html=1;strokeColor=none;fillColor=none;align=left;verticalAlign=middle;whiteSpace=wrap;rounded=0;container=0;" vertex="1" parent="v4gILYptXq12Ke3yifsR-146">
          <mxGeometry x="169.81420163542666" y="115.5935510204082" width="132.76237510841398" height="22.775510204081634" as="geometry" />
        </mxCell>
        <mxCell id="v4gILYptXq12Ke3yifsR-52" value="&lt;div style=&quot;&quot;&gt;&lt;span style=&quot;background-color: initial;&quot;&gt;ServiceName&lt;/span&gt;&lt;/div&gt;&lt;div style=&quot;&quot;&gt;&lt;span style=&quot;background-color: initial;&quot;&gt;ServicePath&lt;/span&gt;&lt;/div&gt;" style="rounded=1;whiteSpace=wrap;html=1;fillColor=#dae8fc;strokeColor=#6c8ebf;align=left;container=0;" vertex="1" parent="v4gILYptXq12Ke3yifsR-146">
          <mxGeometry x="136.62360785832314" y="153.55273469387748" width="99.57178133131049" height="30.367346938775512" as="geometry" />
        </mxCell>
        <mxCell id="v4gILYptXq12Ke3yifsR-57" value="" style="shape=image;html=1;verticalLabelPosition=bottom;verticalAlign=top;imageAspect=1;aspect=fixed;image=img/clipart/Gear_128x128.png;container=0;" vertex="1" parent="v4gILYptXq12Ke3yifsR-146">
          <mxGeometry x="136.62360785832314" y="115.5935510204082" width="18.84820763997907" height="22.11365777080063" as="geometry" />
        </mxCell>
        <mxCell id="v4gILYptXq12Ke3yifsR-54" value="readServiceInstances(serviceName, servicePath)" style="rounded=1;whiteSpace=wrap;html=1;fillColor=#f8cecc;strokeColor=#b85450;align=left;container=0;" vertex="1" parent="v4gILYptXq12Ke3yifsR-146">
          <mxGeometry x="291.51" y="191.51" width="265.49" height="37.96" as="geometry" />
        </mxCell>
        <mxCell id="v4gILYptXq12Ke3yifsR-55" value="serviceInstances" style="rounded=1;whiteSpace=wrap;html=1;fillColor=#dae8fc;strokeColor=#6c8ebf;container=0;" vertex="1" parent="v4gILYptXq12Ke3yifsR-146">
          <mxGeometry x="136.62360785832317" y="191.511918367347" width="110.635312590345" height="37.95918367346939" as="geometry" />
        </mxCell>
        <mxCell id="v4gILYptXq12Ke3yifsR-56" value="" style="shape=partialRectangle;whiteSpace=wrap;html=1;left=0;right=0;fillColor=none;container=0;" vertex="1" parent="v4gILYptXq12Ke3yifsR-146">
          <mxGeometry x="258.32245170770267" y="206.69559183673482" width="22.127062518068996" height="7.591836734693878" as="geometry" />
        </mxCell>
        <mxCell id="v4gILYptXq12Ke3yifsR-58" value="&lt;div style=&quot;&quot;&gt;&lt;br&gt;&lt;/div&gt;&lt;br&gt;&lt;br&gt;&lt;br&gt;" style="rounded=0;whiteSpace=wrap;html=1;container=0;" vertex="1" parent="v4gILYptXq12Ke3yifsR-146">
          <mxGeometry x="159.46" y="252" width="237.54" height="84" as="geometry" />
        </mxCell>
        <mxCell id="v4gILYptXq12Ke3yifsR-59" value="&lt;b&gt;Loop over ServiceInstances&lt;/b&gt;" style="text;html=1;strokeColor=none;fillColor=none;align=center;verticalAlign=middle;whiteSpace=wrap;rounded=0;container=0;" vertex="1" parent="v4gILYptXq12Ke3yifsR-146">
          <mxGeometry x="202.68" y="258" width="174.32" height="22.78" as="geometry" />
        </mxCell>
        <mxCell id="v4gILYptXq12Ke3yifsR-67" value="result[key]" style="rounded=1;whiteSpace=wrap;html=1;fillColor=#dae8fc;strokeColor=#6c8ebf;container=0;" vertex="1" parent="v4gILYptXq12Ke3yifsR-146">
          <mxGeometry x="202.67806814896548" y="293.93999999999994" width="59.31935909099348" height="29.999999999999996" as="geometry" />
        </mxCell>
        <mxCell id="v4gILYptXq12Ke3yifsR-19" value="" style="shape=partialRectangle;whiteSpace=wrap;html=1;left=0;right=0;fillColor=none;container=0;" vertex="1" parent="v4gILYptXq12Ke3yifsR-146">
          <mxGeometry x="273.8612990581576" y="305.94000000000005" width="16.94838831171242" height="6" as="geometry" />
        </mxCell>
        <mxCell id="v4gILYptXq12Ke3yifsR-17" value="value" style="rounded=1;whiteSpace=wrap;html=1;fillColor=#f8cecc;strokeColor=#b85450;align=center;container=0;" vertex="1" parent="v4gILYptXq12Ke3yifsR-146">
          <mxGeometry x="303.190485031576" y="293.93999999999994" width="42.37097077928106" height="29.999999999999996" as="geometry" />
        </mxCell>
        <mxCell id="v4gILYptXq12Ke3yifsR-60" value="" style="shape=image;html=1;verticalLabelPosition=bottom;verticalAlign=top;imageAspect=1;aspect=fixed;image=img/clipart/Gear_128x128.png;container=0;" vertex="1" parent="v4gILYptXq12Ke3yifsR-146">
          <mxGeometry x="168.78317467979747" y="257.9975510204082" width="18.84820763997907" height="22.11365777080063" as="geometry" />
        </mxCell>
        <mxCell id="v4gILYptXq12Ke3yifsR-173" value="" style="group" vertex="1" connectable="0" parent="1">
          <mxGeometry x="90" y="680" width="700" height="330" as="geometry" />
        </mxCell>
        <mxCell id="v4gILYptXq12Ke3yifsR-151" value="" style="rounded=1;whiteSpace=wrap;html=1;align=left;container=0;" vertex="1" parent="v4gILYptXq12Ke3yifsR-173">
          <mxGeometry x="103.44" width="386.56" height="330" as="geometry" />
        </mxCell>
        <mxCell id="v4gILYptXq12Ke3yifsR-152" value="&lt;b&gt;result map[string]string&lt;/b&gt;" style="text;html=1;strokeColor=none;fillColor=none;align=center;verticalAlign=middle;whiteSpace=wrap;rounded=0;container=0;" vertex="1" parent="v4gILYptXq12Ke3yifsR-173">
          <mxGeometry x="490.9970311144824" y="145.9986938775511" width="165.95296888551746" height="22.775510204081634" as="geometry" />
        </mxCell>
        <mxCell id="v4gILYptXq12Ke3yifsR-153" value="" style="endArrow=classic;html=1;rounded=0;" edge="1" parent="v4gILYptXq12Ke3yifsR-173">
          <mxGeometry width="50" height="50" relative="1" as="geometry">
            <mxPoint x="584.690258257366" y="179.6980408163265" as="sourcePoint" />
            <mxPoint x="663" y="180" as="targetPoint" />
            <Array as="points">
              <mxPoint x="491" y="180" />
            </Array>
          </mxGeometry>
        </mxCell>
        <mxCell id="v4gILYptXq12Ke3yifsR-154" value="result make(map[string]string)" style="rounded=1;whiteSpace=wrap;html=1;fillColor=#dae8fc;strokeColor=#6c8ebf;container=0;" vertex="1" parent="v4gILYptXq12Ke3yifsR-173">
          <mxGeometry x="125.56384290780235" y="53.14285714285711" width="188.08003140358645" height="37.95918367346939" as="geometry" />
        </mxCell>
        <mxCell id="v4gILYptXq12Ke3yifsR-155" value="&lt;b&gt;ReadFiles&lt;/b&gt;" style="text;html=1;strokeColor=none;fillColor=none;align=left;verticalAlign=middle;whiteSpace=wrap;rounded=0;container=0;" vertex="1" parent="v4gILYptXq12Ke3yifsR-173">
          <mxGeometry x="125.56195975354552" y="23.997551020408196" width="132.76237510841398" height="22.775510204081634" as="geometry" />
        </mxCell>
        <mxCell id="v4gILYptXq12Ke3yifsR-156" value="" style="endArrow=classic;html=1;rounded=0;" edge="1" parent="v4gILYptXq12Ke3yifsR-173">
          <mxGeometry width="50" height="50" relative="1" as="geometry">
            <mxPoint y="190" as="sourcePoint" />
            <mxPoint x="104.74194155856213" y="189" as="targetPoint" />
          </mxGeometry>
        </mxCell>
        <mxCell id="v4gILYptXq12Ke3yifsR-157" value="&lt;b&gt;InstancePath&lt;br&gt;String&lt;/b&gt;" style="text;html=1;strokeColor=none;fillColor=none;align=center;verticalAlign=middle;whiteSpace=wrap;rounded=0;container=0;" vertex="1" parent="v4gILYptXq12Ke3yifsR-173">
          <mxGeometry x="7" y="150" width="79.32" height="18" as="geometry" />
        </mxCell>
        <mxCell id="v4gILYptXq12Ke3yifsR-158" value="&lt;div style=&quot;&quot;&gt;&lt;br&gt;&lt;/div&gt;&lt;br&gt;&lt;br&gt;&lt;br&gt;" style="rounded=0;whiteSpace=wrap;html=1;container=0;" vertex="1" parent="v4gILYptXq12Ke3yifsR-173">
          <mxGeometry x="125.56" y="108" width="344.44" height="202" as="geometry" />
        </mxCell>
        <mxCell id="v4gILYptXq12Ke3yifsR-159" value="&lt;b&gt;Loop over Instance files&lt;/b&gt;" style="text;html=1;strokeColor=none;fillColor=none;align=left;verticalAlign=middle;whiteSpace=wrap;rounded=0;container=0;" vertex="1" parent="v4gILYptXq12Ke3yifsR-173">
          <mxGeometry x="169.81" y="115.59" width="140.19" height="22.78" as="geometry" />
        </mxCell>
        <mxCell id="v4gILYptXq12Ke3yifsR-160" value="&lt;div style=&quot;&quot;&gt;File&lt;/div&gt;&lt;div style=&quot;&quot;&gt;FilePath&lt;/div&gt;" style="rounded=1;whiteSpace=wrap;html=1;fillColor=#dae8fc;strokeColor=#6c8ebf;align=left;container=0;" vertex="1" parent="v4gILYptXq12Ke3yifsR-173">
          <mxGeometry x="136.62360785832314" y="153.55273469387748" width="99.57178133131049" height="30.367346938775512" as="geometry" />
        </mxCell>
        <mxCell id="v4gILYptXq12Ke3yifsR-161" value="" style="shape=image;html=1;verticalLabelPosition=bottom;verticalAlign=top;imageAspect=1;aspect=fixed;image=img/clipart/Gear_128x128.png;container=0;" vertex="1" parent="v4gILYptXq12Ke3yifsR-173">
          <mxGeometry x="136.62360785832314" y="115.5935510204082" width="18.84820763997907" height="22.11365777080063" as="geometry" />
        </mxCell>
        <mxCell id="v4gILYptXq12Ke3yifsR-162" value="readFileContent(FilePath)" style="rounded=1;whiteSpace=wrap;html=1;fillColor=#f8cecc;strokeColor=#b85450;align=left;container=0;" vertex="1" parent="v4gILYptXq12Ke3yifsR-173">
          <mxGeometry x="291.51" y="191.51" width="158.49" height="37.96" as="geometry" />
        </mxCell>
        <mxCell id="v4gILYptXq12Ke3yifsR-163" value="result[File]" style="rounded=1;whiteSpace=wrap;html=1;fillColor=#dae8fc;strokeColor=#6c8ebf;container=0;align=left;" vertex="1" parent="v4gILYptXq12Ke3yifsR-173">
          <mxGeometry x="136.62360785832317" y="191.511918367347" width="110.635312590345" height="37.95918367346939" as="geometry" />
        </mxCell>
        <mxCell id="v4gILYptXq12Ke3yifsR-164" value="" style="shape=partialRectangle;whiteSpace=wrap;html=1;left=0;right=0;fillColor=none;container=0;" vertex="1" parent="v4gILYptXq12Ke3yifsR-173">
          <mxGeometry x="258.32245170770267" y="206.69559183673482" width="22.127062518068996" height="7.591836734693878" as="geometry" />
        </mxCell>
        <mxCell id="v4gILYptXq12Ke3yifsR-171" value="return result" style="rounded=1;whiteSpace=wrap;html=1;fillColor=#ffe6cc;strokeColor=#d79b00;align=left;container=0;" vertex="1" parent="v4gILYptXq12Ke3yifsR-173">
          <mxGeometry x="136.62222731439044" y="245.00148148148128" width="57.537030247479365" height="44.52333333333333" as="geometry" />
        </mxCell>
        <mxCell id="v4gILYptXq12Ke3yifsR-195" value="&quot;url&quot; = &quot;http://hana.com&quot;&lt;br&gt;&quot;certificate&quot; = &quot;ASSDASF&quot;&lt;br&gt;&lt;div style=&quot;&quot;&gt;&lt;span style=&quot;background-color: initial;&quot;&gt;...&lt;/span&gt;&lt;/div&gt;" style="text;html=1;strokeColor=none;fillColor=none;align=left;verticalAlign=middle;whiteSpace=wrap;rounded=0;labelBorderColor=default;" vertex="1" parent="v4gILYptXq12Ke3yifsR-173">
          <mxGeometry x="501" y="193.49" width="145" height="64.51" as="geometry" />
        </mxCell>
        <mxCell id="v4gILYptXq12Ke3yifsR-194" value="" style="group" vertex="1" connectable="0" parent="1">
          <mxGeometry x="870" y="840" width="489.74" height="159" as="geometry" />
        </mxCell>
        <mxCell id="v4gILYptXq12Ke3yifsR-192" value="" style="endArrow=classic;html=1;rounded=0;" edge="1" parent="v4gILYptXq12Ke3yifsR-194">
          <mxGeometry width="50" height="50" relative="1" as="geometry">
            <mxPoint y="90" as="sourcePoint" />
            <mxPoint x="104.74194155856208" y="89" as="targetPoint" />
          </mxGeometry>
        </mxCell>
        <mxCell id="v4gILYptXq12Ke3yifsR-193" value="&lt;b&gt;FilePath&lt;br&gt;String&lt;/b&gt;" style="text;html=1;strokeColor=none;fillColor=none;align=center;verticalAlign=middle;whiteSpace=wrap;rounded=0;container=0;" vertex="1" parent="v4gILYptXq12Ke3yifsR-194">
          <mxGeometry x="7" y="50" width="79.32" height="18" as="geometry" />
        </mxCell>
        <mxCell id="v4gILYptXq12Ke3yifsR-184" value="" style="rounded=1;whiteSpace=wrap;html=1;align=left;container=0;" vertex="1" parent="v4gILYptXq12Ke3yifsR-194">
          <mxGeometry x="104.74000000000001" width="290.48423423423424" height="159" as="geometry" />
        </mxCell>
        <mxCell id="v4gILYptXq12Ke3yifsR-185" value="value interface{}" style="rounded=1;whiteSpace=wrap;html=1;fillColor=#dae8fc;strokeColor=#6c8ebf;container=0;" vertex="1" parent="v4gILYptXq12Ke3yifsR-194">
          <mxGeometry x="130.75" y="41.22000000000003" width="103.99" height="42.06" as="geometry" />
        </mxCell>
        <mxCell id="v4gILYptXq12Ke3yifsR-186" value="&lt;b&gt;value String&lt;/b&gt;" style="text;html=1;strokeColor=none;fillColor=none;align=center;verticalAlign=middle;whiteSpace=wrap;rounded=0;container=0;" vertex="1" parent="v4gILYptXq12Ke3yifsR-194">
          <mxGeometry x="399.0282882882882" y="55.04761904761904" width="86.71171171171171" height="25.238095238095237" as="geometry" />
        </mxCell>
        <mxCell id="v4gILYptXq12Ke3yifsR-187" value="" style="endArrow=classic;html=1;rounded=0;" edge="1" parent="v4gILYptXq12Ke3yifsR-194">
          <mxGeometry width="50" height="50" relative="1" as="geometry">
            <mxPoint x="395.22423423423425" y="87.91269841269832" as="sourcePoint" />
            <mxPoint x="489.74" y="89" as="targetPoint" />
          </mxGeometry>
        </mxCell>
        <mxCell id="v4gILYptXq12Ke3yifsR-188" value="&lt;b&gt;ReadFileContent&lt;/b&gt;" style="text;html=1;strokeColor=none;fillColor=none;align=left;verticalAlign=middle;whiteSpace=wrap;rounded=0;container=0;" vertex="1" parent="v4gILYptXq12Ke3yifsR-194">
          <mxGeometry x="130.75521284935814" y="15.982066731454552" width="115.12052796562924" height="19.160349854227405" as="geometry" />
        </mxCell>
        <mxCell id="v4gILYptXq12Ke3yifsR-189" value="ioutil.readFile(FilePath)" style="rounded=1;whiteSpace=wrap;html=1;fillColor=#f8cecc;strokeColor=#b85450;container=0;" vertex="1" parent="v4gILYptXq12Ke3yifsR-194">
          <mxGeometry x="226.13639639639632" y="100.95238095238096" width="147.4099099099099" height="42.06349206349206" as="geometry" />
        </mxCell>
        <mxCell id="v4gILYptXq12Ke3yifsR-190" value="value" style="rounded=1;whiteSpace=wrap;html=1;fillColor=#dae8fc;strokeColor=#6c8ebf;container=0;" vertex="1" parent="v4gILYptXq12Ke3yifsR-194">
          <mxGeometry x="130.75351351351355" y="100.95238095238096" width="60.6981981981982" height="42.06349206349206" as="geometry" />
        </mxCell>
        <mxCell id="v4gILYptXq12Ke3yifsR-191" value="" style="shape=partialRectangle;whiteSpace=wrap;html=1;left=0;right=0;fillColor=none;container=0;" vertex="1" parent="v4gILYptXq12Ke3yifsR-194">
          <mxGeometry x="200.12288288288278" y="117.77777777777783" width="17.34234234234234" height="8.412698412698413" as="geometry" />
        </mxCell>
        <mxCell id="v4gILYptXq12Ke3yifsR-198" value="" style="group" vertex="1" connectable="0" parent="1">
          <mxGeometry x="220" y="27" width="490" height="170" as="geometry" />
        </mxCell>
        <mxCell id="v4gILYptXq12Ke3yifsR-1" value="" style="rounded=1;whiteSpace=wrap;html=1;align=left;container=0;" vertex="1" parent="v4gILYptXq12Ke3yifsR-198">
          <mxGeometry width="340" height="170" as="geometry" />
        </mxCell>
        <mxCell id="v4gILYptXq12Ke3yifsR-2" value="DEFAULT_SERVICE_PATH: &quot;/etc/secrets/sapcp/&quot;&amp;nbsp;" style="rounded=1;whiteSpace=wrap;html=1;fillColor=#dae8fc;strokeColor=#6c8ebf;container=0;" vertex="1" parent="v4gILYptXq12Ke3yifsR-198">
          <mxGeometry x="10.009999999999991" y="41.22" width="163.99" height="42.06" as="geometry" />
        </mxCell>
        <mxCell id="v4gILYptXq12Ke3yifsR-4" value="&lt;b&gt;result&lt;br&gt;map[string]interface{}&lt;/b&gt;" style="text;html=1;strokeColor=none;fillColor=none;align=center;verticalAlign=middle;whiteSpace=wrap;rounded=0;container=0;" vertex="1" parent="v4gILYptXq12Ke3yifsR-198">
          <mxGeometry x="345.48" y="49.629999999999995" width="130" height="25.24" as="geometry" />
        </mxCell>
        <mxCell id="v4gILYptXq12Ke3yifsR-5" value="" style="endArrow=classic;html=1;rounded=0;" edge="1" parent="v4gILYptXq12Ke3yifsR-198">
          <mxGeometry width="50" height="50" relative="1" as="geometry">
            <mxPoint x="340.48423423423424" y="87.91269841269842" as="sourcePoint" />
            <mxPoint x="490" y="89" as="targetPoint" />
          </mxGeometry>
        </mxCell>
        <mxCell id="v4gILYptXq12Ke3yifsR-147" value="&lt;b&gt;ReadK8Services&lt;/b&gt;" style="text;html=1;strokeColor=none;fillColor=none;align=left;verticalAlign=middle;whiteSpace=wrap;rounded=0;container=0;" vertex="1" parent="v4gILYptXq12Ke3yifsR-198">
          <mxGeometry x="26.015212849358164" y="15.982066731454516" width="115.12052796562924" height="19.160349854227405" as="geometry" />
        </mxCell>
        <mxCell id="v4gILYptXq12Ke3yifsR-6" value="readSecrets(secretsPath)" style="rounded=1;whiteSpace=wrap;html=1;fillColor=#f8cecc;strokeColor=#b85450;container=0;" vertex="1" parent="v4gILYptXq12Ke3yifsR-198">
          <mxGeometry x="177.34639639639641" y="100.95238095238095" width="147.4099099099099" height="42.06349206349206" as="geometry" />
        </mxCell>
        <mxCell id="v4gILYptXq12Ke3yifsR-7" value="result&lt;br&gt;&lt;span style=&quot;border-color: var(--border-color);&quot;&gt;map[string]interface{}&lt;/span&gt;" style="rounded=1;whiteSpace=wrap;html=1;fillColor=#dae8fc;strokeColor=#6c8ebf;container=0;align=left;" vertex="1" parent="v4gILYptXq12Ke3yifsR-198">
          <mxGeometry x="7.149999999999977" y="100.96000000000001" width="133.99" height="42.06" as="geometry" />
        </mxCell>
        <mxCell id="v4gILYptXq12Ke3yifsR-8" value="" style="shape=partialRectangle;whiteSpace=wrap;html=1;left=0;right=0;fillColor=none;container=0;" vertex="1" parent="v4gILYptXq12Ke3yifsR-198">
          <mxGeometry x="150.0028828828829" y="117.77777777777777" width="17.34234234234234" height="8.412698412698413" as="geometry" />
        </mxCell>
        <mxCell id="v4gILYptXq12Ke3yifsR-131" value="" style="endArrow=classic;html=1;rounded=0;" edge="1" parent="1">
          <mxGeometry width="50" height="50" relative="1" as="geometry">
            <mxPoint x="890" y="685.5566666666664" as="sourcePoint" />
            <mxPoint x="1004.115490375802" y="685.5566666666664" as="targetPoint" />
          </mxGeometry>
        </mxCell>
        <mxCell id="v4gILYptXq12Ke3yifsR-132" value="&lt;b&gt;InstanceName String&lt;/b&gt;" style="text;html=1;strokeColor=none;fillColor=none;align=center;verticalAlign=middle;whiteSpace=wrap;rounded=0;" vertex="1" parent="1">
          <mxGeometry x="898.8469294225481" y="653.8899999999999" width="91.29239230064162" height="21.11111111111111" as="geometry" />
        </mxCell>
        <mxCell id="v4gILYptXq12Ke3yifsR-129" value="" style="endArrow=classic;html=1;rounded=0;" edge="1" parent="1">
          <mxGeometry width="50" height="50" relative="1" as="geometry">
            <mxPoint x="891" y="572.5566666666664" as="sourcePoint" />
            <mxPoint x="1005.115490375802" y="572.5566666666664" as="targetPoint" />
          </mxGeometry>
        </mxCell>
        <mxCell id="v4gILYptXq12Ke3yifsR-130" value="&lt;b&gt;ServiceName String&lt;/b&gt;" style="text;html=1;strokeColor=none;fillColor=none;align=center;verticalAlign=middle;whiteSpace=wrap;rounded=0;" vertex="1" parent="1">
          <mxGeometry x="897.8469294225481" y="540.8899999999999" width="91.29239230064162" height="21.11111111111111" as="geometry" />
        </mxCell>
        <mxCell id="v4gILYptXq12Ke3yifsR-126" value="" style="group" vertex="1" connectable="0" parent="1">
          <mxGeometry x="928.2777268560953" y="639.8899999999999" width="76.076993583868" height="31.666666666666664" as="geometry" />
        </mxCell>
        <mxCell id="v4gILYptXq12Ke3yifsR-127" value="" style="endArrow=classic;html=1;rounded=0;" edge="1" parent="v4gILYptXq12Ke3yifsR-126">
          <mxGeometry width="50" height="50" relative="1" as="geometry">
            <mxPoint x="-38.038496791934" y="-9.555555555555557" as="sourcePoint" />
            <mxPoint x="76.076993583868" y="-9.555555555555557" as="targetPoint" />
          </mxGeometry>
        </mxCell>
        <mxCell id="v4gILYptXq12Ke3yifsR-128" value="&lt;b&gt;ServicePath String&lt;/b&gt;" style="text;html=1;strokeColor=none;fillColor=none;align=center;verticalAlign=middle;whiteSpace=wrap;rounded=0;" vertex="1" parent="v4gILYptXq12Ke3yifsR-126">
          <mxGeometry x="-34.038496791934" y="-41.22222222222222" width="91.29239230064161" height="21.11111111111111" as="geometry" />
        </mxCell>
        <mxCell id="v4gILYptXq12Ke3yifsR-111" value="" style="rounded=1;whiteSpace=wrap;html=1;align=left;" vertex="1" parent="1">
          <mxGeometry x="1005.88" y="492" width="448.85" height="280" as="geometry" />
        </mxCell>
        <mxCell id="v4gILYptXq12Ke3yifsR-112" value="&lt;b&gt;instance&lt;br&gt;&lt;/b&gt;map[string]interface{}" style="text;html=1;strokeColor=none;fillColor=none;align=left;verticalAlign=middle;whiteSpace=wrap;rounded=0;" vertex="1" parent="1">
          <mxGeometry x="1459" y="585.02" width="174.59" height="26.71" as="geometry" />
        </mxCell>
        <mxCell id="v4gILYptXq12Ke3yifsR-113" value="" style="endArrow=classic;html=1;rounded=0;" edge="1" parent="1">
          <mxGeometry width="50" height="50" relative="1" as="geometry">
            <mxPoint x="1455.4338119971483" y="621.6469614512471" as="sourcePoint" />
            <mxPoint x="1590" y="622" as="targetPoint" />
          </mxGeometry>
        </mxCell>
        <mxCell id="v4gILYptXq12Ke3yifsR-115" value="&lt;b&gt;ReadInstance&lt;/b&gt;" style="text;html=1;strokeColor=none;fillColor=none;align=left;verticalAlign=middle;whiteSpace=wrap;rounded=0;" vertex="1" parent="1">
          <mxGeometry x="1025.73911803646" y="499.0352758881331" width="119.18728994805986" height="26.71201814058957" as="geometry" />
        </mxCell>
        <mxCell id="v4gILYptXq12Ke3yifsR-136" value="" style="group" vertex="1" connectable="0" parent="1">
          <mxGeometry x="1025.7362603116408" y="533.2199999999998" width="280.14" height="44.519999999999996" as="geometry" />
        </mxCell>
        <mxCell id="v4gILYptXq12Ke3yifsR-114" value="Credentials" style="rounded=1;whiteSpace=wrap;html=1;fillColor=#dae8fc;strokeColor=#6c8ebf;" vertex="1" parent="v4gILYptXq12Ke3yifsR-136">
          <mxGeometry width="80.14" height="44.52" as="geometry" />
        </mxCell>
        <mxCell id="v4gILYptXq12Ke3yifsR-134" value="readFiles(InstancePath)" style="rounded=1;whiteSpace=wrap;html=1;fillColor=#f8cecc;strokeColor=#b85450;align=left;" vertex="1" parent="v4gILYptXq12Ke3yifsR-136">
          <mxGeometry x="140.26" width="139.88" height="44.52" as="geometry" />
        </mxCell>
        <mxCell id="v4gILYptXq12Ke3yifsR-135" value="" style="shape=partialRectangle;whiteSpace=wrap;html=1;left=0;right=0;fillColor=none;" vertex="1" parent="v4gILYptXq12Ke3yifsR-136">
          <mxGeometry x="95.264952860088" y="17.67075585789864" width="21.877340447885356" height="8.90400604686319" as="geometry" />
        </mxCell>
        <mxCell id="v4gILYptXq12Ke3yifsR-138" value="instance make(map[string]interface{})" style="rounded=1;whiteSpace=wrap;html=1;fillColor=#dae8fc;strokeColor=#6c8ebf;" vertex="1" parent="1">
          <mxGeometry x="1025.74" y="596.37" width="214.26" height="44.52" as="geometry" />
        </mxCell>
        <mxCell id="v4gILYptXq12Ke3yifsR-125" value="return String(instance)" style="rounded=1;whiteSpace=wrap;html=1;fillColor=#ffe6cc;strokeColor=#d79b00;align=left;" vertex="1" parent="1">
          <mxGeometry x="1030.2662603116407" y="715.9999999999999" width="110.13" height="44.52" as="geometry" />
        </mxCell>
        <mxCell id="v4gILYptXq12Ke3yifsR-197" value="instance[&quot;Credentials&quot;] [&quot;Name&quot;] [&quot;Label&quot;]" style="rounded=1;whiteSpace=wrap;html=1;fillColor=#dae8fc;strokeColor=#6c8ebf;align=left;" vertex="1" parent="1">
          <mxGeometry x="1025.74" y="653.89" width="214.26" height="44.52" as="geometry" />
        </mxCell>
      </root>
    </mxGraphModel>
  </diagram>
</mxfile>
